<svg width="529" height="476" viewBox="0 0 529 476" fill="none" xmlns="http://www.w3.org/2000/svg">
<path d="M259.782 0.368269C252.092 1.41688 244.871 4.67121 238.992 9.73761L31 188.975L6.99839 214.525C2.50265 219.311 0 225.63 0 232.196V233.688C0 238.413 1.56201 243.006 4.44292 246.751C7.99367 251.367 13.2705 254.338 19.0585 254.981L27.6668 255.938C48.4699 258.249 64.353 275.597 64.8259 296.522L67.6554 421.726C67.88 431.665 71.0703 441.309 76.8167 449.422C82.1665 456.975 89.5128 462.889 98.0332 466.504L102.901 468.569C112.827 472.78 123.606 474.588 134.363 473.846L188.014 470.146C199.253 469.371 210.272 466.652 220.58 462.109L240.061 453.525C255.171 446.866 272.505 447.531 287.06 455.329C290.345 457.088 293.803 458.501 297.38 459.544L328.35 468.577C336.096 470.836 344.055 472.281 352.101 472.888L383.076 475.226C389.673 475.724 396.305 475.516 402.858 474.606L410.23 473.582C422.501 471.878 434.055 466.792 443.599 458.893L444.942 457.782C453.483 450.713 459.918 441.434 463.544 430.958C465.831 424.352 466.956 417.401 466.869 410.412L465.439 295.31C465.193 275.529 480.528 259.043 500.274 257.858L504.855 257.584C511.37 257.193 517.487 254.322 521.951 249.56C527.059 244.112 529.525 236.701 528.7 229.279L528.365 226.256C527.486 218.351 523.707 211.052 517.758 205.773L304.622 16.6266C298.92 11.5667 292.356 7.57324 285.241 4.83673L279.625 2.67684C273.311 0.248305 266.485 -0.545789 259.782 0.368269Z" fill="#FF385C"/>
<path d="M222.053 309.597C218.076 309.845 214.217 311.045 210.799 313.095C207.639 314.991 204.94 317.566 202.895 320.632L201.586 322.596C200.533 324.175 199.696 325.887 199.096 327.688C198.37 329.865 198 332.145 198 334.44V339.72C198 343.205 198.509 346.671 199.51 350.009C200.498 353.302 201.956 356.437 203.838 359.315L211.201 370.577C215.722 377.49 220.944 383.919 226.785 389.76L238 400.975L246.88 407.712C258.877 416.813 275.37 417.152 287.731 408.553C289.241 407.503 290.666 406.334 291.991 405.058L307.226 390.387C313.721 384.132 319.491 377.165 324.426 369.618L331.162 359.315C333.044 356.437 334.502 353.302 335.49 350.009C336.491 346.671 337 343.205 337 339.72V337.239C337 333.112 336.104 329.034 334.375 325.287L334.095 324.681C332.071 320.296 328.873 316.557 324.855 313.878C321.02 311.321 316.577 309.824 311.977 309.536L307.494 309.256C304.532 309.071 301.563 309.514 298.784 310.556C296.284 311.493 293.985 312.897 292.01 314.693L289.323 317.136C285.818 320.322 283.065 324.247 281.261 328.626L278.616 335.05C277.57 337.591 275.692 339.702 273.29 341.036L272.861 341.274C269.8 342.975 266.118 343.139 262.918 341.716C260.396 340.595 258.379 338.579 257.258 336.056L253.829 328.34C251.963 324.143 249.245 320.379 245.846 317.29L242.99 314.693C241.015 312.897 238.716 311.493 236.216 310.556C233.437 309.514 230.468 309.071 227.506 309.256L222.053 309.597Z" fill="white"/>
<path d="M445.847 340.455C445.303 319.574 436.901 299.666 422.322 284.707L374.618 235.765C370.897 231.947 364.849 231.676 360.801 235.146C356.919 238.473 356.133 244.174 358.969 248.428L362.771 254.131C364.72 257.055 364.686 260.872 362.686 263.762C359.697 268.08 353.561 268.717 349.748 265.105L328.09 244.586C322.772 239.548 314.677 238.857 308.582 242.921C303.893 246.046 297.89 246.42 292.85 243.9L286.992 240.971C280.802 237.876 273.436 238.292 267.633 242.063L266.255 242.959C260.627 246.617 253.373 246.617 247.745 242.959C241.385 238.825 233.056 239.41 227.336 244.392L222.368 248.719C212.962 256.911 198.976 256.984 189.485 248.889C179.58 240.441 164.87 240.934 155.553 250.026L115.219 289.388C98.4535 305.749 89 328.184 89 351.61V420.28C89 427.239 91.1545 434.027 95.1677 439.713C98.9721 445.102 104.275 449.256 110.418 451.66L114.639 453.312C120.815 455.729 127.419 456.861 134.047 456.64L178.982 455.142C182.312 455.031 185.61 454.465 188.787 453.459C214.39 445.351 222.769 413.305 204.411 393.702L191.996 380.446C187.384 375.521 183.863 369.678 181.663 363.299L178.786 354.955C176.295 347.729 175.473 340.032 176.384 332.443C177.443 323.62 180.807 315.232 186.139 308.123L190.107 302.833C193.971 297.68 199.09 293.602 204.976 290.986C210.892 288.356 217.386 287.292 223.832 287.897L238.575 289.279C243.425 289.734 248.091 291.591 251.946 294.569C261.285 301.786 274.479 301.73 283.652 294.304C287.155 291.469 291.347 289.614 295.8 288.929L300.344 288.23C309.834 286.77 319.538 288.568 327.874 293.332L330.243 294.685C342.801 301.861 351.661 314.098 354.56 328.268L355.036 330.597C357.6 343.13 355.758 356.164 349.822 367.496L339.749 386.728C337.93 390.199 335.521 393.328 332.63 395.973C313.568 413.413 320.353 444.927 344.903 452.976L345.582 453.199C349.169 454.375 352.926 454.949 356.701 454.897L413.079 454.125C420.176 454.027 427.059 451.68 432.738 447.422C437.494 443.855 441.216 439.088 443.523 433.609L444.454 431.397C446.791 425.846 447.919 419.861 447.762 413.84L445.847 340.455Z" fill="white"/>
<path d="M306.255 220.739C306.087 220.235 305.816 219.772 305.458 219.379L296.335 209.344C296.12 209.106 296 208.797 296 208.476C296 208.154 295.879 207.843 295.661 207.605L285.327 196.332C285.117 196.102 285 195.802 285 195.491C285 195.16 284.869 194.844 284.635 194.61L279.339 189.314C279.122 189.097 278.827 188.975 278.52 188.975C278.189 188.975 277.874 189.116 277.654 189.364L254.318 215.617C254.113 215.848 254 216.145 254 216.454C254 216.787 253.867 217.108 253.631 217.344L249.354 221.621C249.127 221.848 249 222.155 249 222.475C249 222.795 249.127 223.102 249.354 223.328L255.234 229.209C255.725 229.699 256.39 229.975 257.083 229.975C257.677 229.975 258.253 229.773 258.716 229.402L262.091 226.702C262.696 226.218 263.338 225.782 264.011 225.397L268.335 222.927C269.44 222.295 270.456 221.519 271.356 220.619L271.712 220.263C272.565 219.41 273.55 218.7 274.63 218.16L276.106 217.422C276.694 217.128 277.342 216.975 278 216.975C278.658 216.975 279.306 217.128 279.894 217.422L283.103 219.026C284.359 219.655 285.506 220.481 286.5 221.475C287.494 222.468 288.641 223.295 289.897 223.924L290.332 224.141C291.44 224.695 292.481 225.376 293.433 226.169L297.283 229.378C297.746 229.764 298.33 229.975 298.933 229.975C299.616 229.975 300.271 229.703 300.755 229.22L305.333 224.642C306.355 223.62 306.711 222.109 306.255 220.739Z" fill="white"/>
<path d="M26.1639 226.257C23.6643 228.489 22.8286 232.046 24.0731 235.158C25.2444 238.086 28.0331 240.048 31.185 240.16L70.1245 241.551C77.0215 241.797 82.777 246.896 83.8533 253.713C85.6382 265.017 99.2489 269.837 107.75 262.175C116.252 254.513 164.454 211.072 164.454 211.072C167.352 208.46 171.209 207.176 175.095 207.529C178.27 207.818 181.251 209.181 183.546 211.394L187.023 214.747C198.436 225.753 216.737 224.967 227.165 213.023L261.108 174.142C262.364 172.704 263.805 171.438 265.394 170.379C274.343 164.413 286.321 165.949 293.475 173.982L322.207 206.242C331.002 216.118 346.056 217.208 356.182 208.702L359.38 206.016C361.718 204.052 364.674 202.975 367.728 202.975C371.108 202.975 374.356 204.294 376.779 206.652L431.774 260.161C437.658 265.885 447.543 261.952 447.884 253.75C447.96 251.938 448.553 250.185 449.593 248.7L450.695 247.125C453.424 243.227 457.739 240.739 462.479 240.33L497.924 237.275C505.064 236.659 509.252 228.947 505.879 222.623C505.298 221.534 504.52 220.562 503.585 219.756L289.485 35.3144C279.82 26.9885 266.614 24.0852 254.348 27.5897C248.854 29.1595 243.786 31.9518 239.523 35.7576L26.1639 226.257Z" fill="white"/>
</svg>
