<?xml version="1.0" encoding="UTF-8"?>
<svg width="1024" height="1024" viewBox="0 0 1024 1024" xmlns="http://www.w3.org/2000/svg">
  <g id="red-layer" fill="#FF385C">

    <path d="M 494,160 L 277,347 L 246,380 L 246,399 L 256,412 L 310,418 L 314,595 L 331,619 L 364,633 L 451,627 L 510,601 L 538,616 L 586,630 L 639,634 L 675,629 L 704,605 L 713,579 L 711,418 L 761,415 L 776,399 L 773,372 L 542,167 L 516,157 Z"/>

  </g>
  <g id="white-layer">
    <path fill="#FFFFFF" d="M 462,468 L 452,474 L 446,483 L 444,489 L 444,503 L 447,513 L 464,539 L 484,559 L 513,581 L 536,565 L 563,539 L 580,513 L 583,503 L 583,489 L 577,476 L 565,468 L 549,467 L 541,470 L 530,480 L 523,497 L 514,502 L 505,498 L 497,480 L 486,470 L 478,467 Z"/>
    <path fill="#FFFFFF" d="M 691,466 L 614,387 L 600,399 L 612,417 L 603,430 L 565,394 L 547,406 L 523,394 L 503,407 L 483,394 L 452,421 L 418,392 L 335,473 L 335,589 L 347,606 L 370,615 L 430,613 L 490,594 L 431,531 L 421,502 L 424,477 L 442,453 L 460,445 L 492,448 L 514,465 L 535,448 L 561,444 L 596,464 L 605,508 L 583,550 L 536,593 L 597,613 L 670,612 L 686,600 L 694,581 Z"/>
    <path fill="#FFFFFF" d="M 552,378 L 542,367 L 542,366 L 531,354 L 531,353 L 525,347 L 524,347 L 500,374 L 500,375 L 495,380 L 495,381 L 502,388 L 504,388 L 509,384 L 516,380 L 519,377 L 523,375 L 525,375 L 531,378 L 534,381 L 538,383 L 544,388 L 546,388 L 553,381 Z"/>
    <path fill="#FFFFFF" d="M 268,388 L 272,398 L 328,400 L 334,438 L 415,365 L 426,366 L 454,393 L 509,330 L 527,318 L 584,382 L 609,361 L 619,361 L 693,433 L 694,409 L 701,399 L 759,394 L 751,379 L 520,180 L 492,188 Z"/>
  </g>
</svg>